<svg xmlns="http://www.w3.org/2000/svg" viewBox="0 0 512 512" shape-rendering="crispEdges"><rect width="512" height="512" rx="108" fill="#FAF3E3"/><g transform="translate(46 66) scale(14)"><rect x="12" y="0" width="1" height="1" fill="#4A3228"/><rect x="4" y="1" width="3" height="1" fill="#4A3228"/><rect x="11" y="1" width="1" height="1" fill="#4A3228"/><rect x="12" y="1" width="1" height="1" fill="#C48A60"/><rect x="13" y="1" width="1" height="1" fill="#4A3228"/><rect x="19" y="1" width="3" height="1" fill="#4A3228"/><rect x="3" y="2" width="1" height="1" fill="#4A3228"/><rect x="4" y="2" width="3" height="1" fill="#C48A60"/><rect x="7" y="2" width="4" height="1" fill="#4A3228"/><rect x="11" y="2" width="3" height="1" fill="#C48A60"/><rect x="14" y="2" width="1" height="1" fill="#4A3228"/><rect x="18" y="2" width="1" height="1" fill="#4A3228"/><rect x="19" y="2" width="3" height="1" fill="#9B603E"/><rect x="22" y="2" width="1" height="1" fill="#4A3228"/><rect x="3" y="3" width="1" height="1" fill="#4A3228"/><rect x="4" y="3" width="3" height="1" fill="#C48A60"/><rect x="7" y="3" width="1" height="1" fill="#4A3228"/><rect x="8" y="3" width="6" height="1" fill="#C48A60"/><rect x="14" y="3" width="1" height="1" fill="#4A3228"/><rect x="17" y="3" width="1" height="1" fill="#4A3228"/><rect x="18" y="3" width="5" height="1" fill="#9B603E"/><rect x="23" y="3" width="1" height="1" fill="#4A3228"/><rect x="3" y="4" width="1" height="1" fill="#4A3228"/><rect x="4" y="4" width="1" height="1" fill="#C48A60"/><rect x="5" y="4" width="1" height="1" fill="#EB9B96"/><rect x="6" y="4" width="6" height="1" fill="#C48A60"/><rect x="12" y="4" width="1" height="1" fill="#EB9B96"/><rect x="13" y="4" width="1" height="1" fill="#C48A60"/><rect x="14" y="4" width="1" height="1" fill="#4A3228"/><rect x="16" y="4" width="1" height="1" fill="#4A3228"/><rect x="17" y="4" width="7" height="1" fill="#9B603E"/><rect x="24" y="4" width="2" height="1" fill="#4A3228"/><rect x="3" y="5" width="1" height="1" fill="#4A3228"/><rect x="4" y="5" width="10" height="1" fill="#C48A60"/><rect x="14" y="5" width="1" height="1" fill="#4A3228"/><rect x="16" y="5" width="1" height="1" fill="#4A3228"/><rect x="17" y="5" width="2" height="1" fill="#9B603E"/><rect x="19" y="5" width="3" height="1" fill="#D89664"/><rect x="22" y="5" width="4" height="1" fill="#9B603E"/><rect x="26" y="5" width="1" height="1" fill="#4A3228"/><rect x="3" y="6" width="1" height="1" fill="#4A3228"/><rect x="4" y="6" width="11" height="1" fill="#C48A60"/><rect x="15" y="6" width="2" height="1" fill="#4A3228"/><rect x="17" y="6" width="2" height="1" fill="#9B603E"/><rect x="19" y="6" width="3" height="1" fill="#D89664"/><rect x="22" y="6" width="5" height="1" fill="#9B603E"/><rect x="27" y="6" width="1" height="1" fill="#4A3228"/><rect x="3" y="7" width="1" height="1" fill="#4A3228"/><rect x="4" y="7" width="11" height="1" fill="#C48A60"/><rect x="15" y="7" width="2" height="1" fill="#4A3228"/><rect x="17" y="7" width="2" height="1" fill="#9B603E"/><rect x="19" y="7" width="5" height="1" fill="#D89664"/><rect x="24" y="7" width="4" height="1" fill="#9B603E"/><rect x="28" y="7" width="1" height="1" fill="#4A3228"/><rect x="2" y="8" width="1" height="1" fill="#4A3228"/><rect x="3" y="8" width="13" height="1" fill="#C48A60"/><rect x="16" y="8" width="2" height="1" fill="#4A3228"/><rect x="18" y="8" width="3" height="1" fill="#9B603E"/><rect x="21" y="8" width="4" height="1" fill="#D89664"/><rect x="25" y="8" width="3" height="1" fill="#9B603E"/><rect x="28" y="8" width="1" height="1" fill="#4A3228"/><rect x="2" y="9" width="1" height="1" fill="#4A3228"/><rect x="3" y="9" width="2" height="1" fill="#C48A60"/><rect x="5" y="9" width="1" height="1" fill="#2B1E16"/><rect x="6" y="9" width="1" height="1" fill="#FFFFFF"/><rect x="7" y="9" width="4" height="1" fill="#C48A60"/><rect x="11" y="9" width="1" height="1" fill="#FFFFFF"/><rect x="12" y="9" width="1" height="1" fill="#2B1E16"/><rect x="13" y="9" width="3" height="1" fill="#C48A60"/><rect x="16" y="9" width="1" height="1" fill="#4A3228"/><rect x="18" y="9" width="1" height="1" fill="#4A3228"/><rect x="19" y="9" width="2" height="1" fill="#9B603E"/><rect x="21" y="9" width="4" height="1" fill="#D89664"/><rect x="25" y="9" width="3" height="1" fill="#9B603E"/><rect x="28" y="9" width="1" height="1" fill="#4A3228"/><rect x="2" y="10" width="1" height="1" fill="#4A3228"/><rect x="3" y="10" width="2" height="1" fill="#C48A60"/><rect x="5" y="10" width="2" height="1" fill="#2B1E16"/><rect x="7" y="10" width="4" height="1" fill="#C48A60"/><rect x="11" y="10" width="2" height="1" fill="#2B1E16"/><rect x="13" y="10" width="3" height="1" fill="#C48A60"/><rect x="16" y="10" width="1" height="1" fill="#4A3228"/><rect x="18" y="10" width="1" height="1" fill="#4A3228"/><rect x="19" y="10" width="2" height="1" fill="#9B603E"/><rect x="21" y="10" width="4" height="1" fill="#D89664"/><rect x="25" y="10" width="3" height="1" fill="#9B603E"/><rect x="28" y="10" width="1" height="1" fill="#4A3228"/><rect x="1" y="11" width="1" height="1" fill="#4A3228"/><rect x="2" y="11" width="2" height="1" fill="#EB9B96"/><rect x="4" y="11" width="1" height="1" fill="#C48A60"/><rect x="5" y="11" width="2" height="1" fill="#2B1E16"/><rect x="7" y="11" width="1" height="1" fill="#F5E2C4"/><rect x="8" y="11" width="1" height="1" fill="#2B1E16"/><rect x="9" y="11" width="2" height="1" fill="#F5E2C4"/><rect x="11" y="11" width="2" height="1" fill="#2B1E16"/><rect x="13" y="11" width="1" height="1" fill="#C48A60"/><rect x="14" y="11" width="2" height="1" fill="#EB9B96"/><rect x="16" y="11" width="1" height="1" fill="#4A3228"/><rect x="18" y="11" width="1" height="1" fill="#4A3228"/><rect x="19" y="11" width="3" height="1" fill="#9B603E"/><rect x="22" y="11" width="2" height="1" fill="#D89664"/><rect x="24" y="11" width="4" height="1" fill="#9B603E"/><rect x="28" y="11" width="1" height="1" fill="#4A3228"/><rect x="2" y="12" width="2" height="1" fill="#4A3228"/><rect x="4" y="12" width="3" height="1" fill="#C48A60"/><rect x="7" y="12" width="4" height="1" fill="#F5E2C4"/><rect x="11" y="12" width="4" height="1" fill="#C48A60"/><rect x="15" y="12" width="1" height="1" fill="#4A3228"/><rect x="19" y="12" width="1" height="1" fill="#4A3228"/><rect x="20" y="12" width="2" height="1" fill="#9B603E"/><rect x="22" y="12" width="3" height="1" fill="#D89664"/><rect x="25" y="12" width="4" height="1" fill="#9B603E"/><rect x="29" y="12" width="1" height="1" fill="#4A3228"/><rect x="4" y="13" width="1" height="1" fill="#4A3228"/><rect x="5" y="13" width="2" height="1" fill="#C48A60"/><rect x="7" y="13" width="1" height="1" fill="#F5E2C4"/><rect x="8" y="13" width="1" height="1" fill="#4A3228"/><rect x="9" y="13" width="2" height="1" fill="#F5E2C4"/><rect x="11" y="13" width="3" height="1" fill="#C48A60"/><rect x="14" y="13" width="2" height="1" fill="#4A3228"/><rect x="19" y="13" width="1" height="1" fill="#4A3228"/><rect x="20" y="13" width="1" height="1" fill="#9B603E"/><rect x="21" y="13" width="5" height="1" fill="#D89664"/><rect x="26" y="13" width="3" height="1" fill="#9B603E"/><rect x="29" y="13" width="1" height="1" fill="#4A3228"/><rect x="5" y="14" width="1" height="1" fill="#4A3228"/><rect x="6" y="14" width="2" height="1" fill="#C48A60"/><rect x="8" y="14" width="2" height="1" fill="#F5E2C4"/><rect x="10" y="14" width="6" height="1" fill="#C48A60"/><rect x="16" y="14" width="1" height="1" fill="#4A3228"/><rect x="19" y="14" width="1" height="1" fill="#4A3228"/><rect x="20" y="14" width="1" height="1" fill="#9B603E"/><rect x="21" y="14" width="5" height="1" fill="#D89664"/><rect x="26" y="14" width="3" height="1" fill="#9B603E"/><rect x="29" y="14" width="1" height="1" fill="#4A3228"/><rect x="5" y="15" width="1" height="1" fill="#4A3228"/><rect x="6" y="15" width="4" height="1" fill="#C48A60"/><rect x="10" y="15" width="2" height="1" fill="#7A4A32"/><rect x="12" y="15" width="5" height="1" fill="#C48A60"/><rect x="17" y="15" width="1" height="1" fill="#4A3228"/><rect x="19" y="15" width="1" height="1" fill="#4A3228"/><rect x="20" y="15" width="1" height="1" fill="#9B603E"/><rect x="21" y="15" width="5" height="1" fill="#D89664"/><rect x="26" y="15" width="3" height="1" fill="#9B603E"/><rect x="29" y="15" width="1" height="1" fill="#4A3228"/><rect x="4" y="16" width="1" height="1" fill="#4A3228"/><rect x="5" y="16" width="3" height="1" fill="#C48A60"/><rect x="8" y="16" width="6" height="1" fill="#7A4A32"/><rect x="14" y="16" width="4" height="1" fill="#C48A60"/><rect x="18" y="16" width="1" height="1" fill="#4A3228"/><rect x="19" y="16" width="3" height="1" fill="#9B603E"/><rect x="22" y="16" width="3" height="1" fill="#D89664"/><rect x="25" y="16" width="4" height="1" fill="#9B603E"/><rect x="29" y="16" width="1" height="1" fill="#4A3228"/><rect x="4" y="17" width="1" height="1" fill="#4A3228"/><rect x="5" y="17" width="3" height="1" fill="#C48A60"/><rect x="8" y="17" width="1" height="1" fill="#F5E2C4"/><rect x="9" y="17" width="4" height="1" fill="#7A4A32"/><rect x="13" y="17" width="2" height="1" fill="#F5E2C4"/><rect x="15" y="17" width="3" height="1" fill="#C48A60"/><rect x="18" y="17" width="1" height="1" fill="#4A3228"/><rect x="19" y="17" width="9" height="1" fill="#9B603E"/><rect x="28" y="17" width="1" height="1" fill="#4A3228"/><rect x="3" y="18" width="1" height="1" fill="#4A3228"/><rect x="4" y="18" width="3" height="1" fill="#C48A60"/><rect x="7" y="18" width="1" height="1" fill="#D6A076"/><rect x="8" y="18" width="2" height="1" fill="#F5E2C4"/><rect x="10" y="18" width="2" height="1" fill="#CD9452"/><rect x="12" y="18" width="2" height="1" fill="#F5E2C4"/><rect x="14" y="18" width="1" height="1" fill="#D6A076"/><rect x="15" y="18" width="4" height="1" fill="#C48A60"/><rect x="19" y="18" width="8" height="1" fill="#9B603E"/><rect x="27" y="18" width="1" height="1" fill="#4A3228"/><rect x="3" y="19" width="1" height="1" fill="#4A3228"/><rect x="4" y="19" width="3" height="1" fill="#C48A60"/><rect x="7" y="19" width="2" height="1" fill="#F5E2C4"/><rect x="9" y="19" width="4" height="1" fill="#CD9452"/><rect x="13" y="19" width="3" height="1" fill="#F5E2C4"/><rect x="16" y="19" width="3" height="1" fill="#C48A60"/><rect x="19" y="19" width="8" height="1" fill="#9B603E"/><rect x="27" y="19" width="1" height="1" fill="#4A3228"/><rect x="3" y="20" width="1" height="1" fill="#4A3228"/><rect x="4" y="20" width="3" height="1" fill="#C48A60"/><rect x="7" y="20" width="2" height="1" fill="#F5E2C4"/><rect x="9" y="20" width="4" height="1" fill="#CD9452"/><rect x="13" y="20" width="3" height="1" fill="#F5E2C4"/><rect x="16" y="20" width="3" height="1" fill="#C48A60"/><rect x="19" y="20" width="8" height="1" fill="#9B603E"/><rect x="27" y="20" width="1" height="1" fill="#4A3228"/><rect x="4" y="21" width="1" height="1" fill="#4A3228"/><rect x="5" y="21" width="2" height="1" fill="#C48A60"/><rect x="7" y="21" width="3" height="1" fill="#F5E2C4"/><rect x="10" y="21" width="2" height="1" fill="#CD9452"/><rect x="12" y="21" width="4" height="1" fill="#F5E2C4"/><rect x="16" y="21" width="2" height="1" fill="#C48A60"/><rect x="18" y="21" width="1" height="1" fill="#4A3228"/><rect x="19" y="21" width="7" height="1" fill="#9B603E"/><rect x="26" y="21" width="1" height="1" fill="#4A3228"/><rect x="4" y="22" width="1" height="1" fill="#4A3228"/><rect x="5" y="22" width="3" height="1" fill="#C48A60"/><rect x="8" y="22" width="7" height="1" fill="#F5E2C4"/><rect x="15" y="22" width="3" height="1" fill="#C48A60"/><rect x="18" y="22" width="1" height="1" fill="#4A3228"/><rect x="19" y="22" width="7" height="1" fill="#9B603E"/><rect x="26" y="22" width="1" height="1" fill="#4A3228"/><rect x="5" y="23" width="1" height="1" fill="#4A3228"/><rect x="6" y="23" width="2" height="1" fill="#C48A60"/><rect x="8" y="23" width="7" height="1" fill="#F5E2C4"/><rect x="15" y="23" width="2" height="1" fill="#C48A60"/><rect x="17" y="23" width="1" height="1" fill="#4A3228"/><rect x="19" y="23" width="2" height="1" fill="#4A3228"/><rect x="21" y="23" width="3" height="1" fill="#9B603E"/><rect x="24" y="23" width="2" height="1" fill="#4A3228"/><rect x="6" y="24" width="1" height="1" fill="#4A3228"/><rect x="7" y="24" width="3" height="1" fill="#C48A60"/><rect x="10" y="24" width="3" height="1" fill="#F5E2C4"/><rect x="13" y="24" width="3" height="1" fill="#C48A60"/><rect x="16" y="24" width="1" height="1" fill="#4A3228"/><rect x="21" y="24" width="3" height="1" fill="#4A3228"/><rect x="5" y="25" width="1" height="1" fill="#4A3228"/><rect x="6" y="25" width="4" height="1" fill="#D6A076"/><rect x="10" y="25" width="2" height="1" fill="#C48A60"/><rect x="12" y="25" width="4" height="1" fill="#D6A076"/><rect x="16" y="25" width="1" height="1" fill="#4A3228"/><rect x="6" y="26" width="10" height="1" fill="#4A3228"/></g></svg>