<svg viewBox="0 0 200 200" xmlns="http://www.w3.org/2000/svg">
  <circle cx="100" cy="100" r="95" fill="#ffffff" stroke="#000000" stroke-width="2"/>
  <polygon points="100.00,60.00 138.04,87.64 123.51,132.36 76.49,132.36 61.96,87.64" fill="#000000" stroke="#000000" stroke-width="1"/>
  <line x1="100.00" y1="100.00" x2="100.00" y2="5.00" stroke="#000000" stroke-width="1"/>
  <line x1="100.00" y1="28.75" x2="65.89" y2="11.33" stroke="#000000" stroke-width="1"/>
  <line x1="100.00" y1="28.75" x2="134.11" y2="11.33" stroke="#000000" stroke-width="1"/>
  <polygon points="65.89,11.33 100.00,5.00 134.11,11.33" fill="#000000" stroke="none"/>
  <polygon points="65.89,11.33 100.00,28.75 134.11,11.33" fill="#000000" stroke="none"/>
  
  <!-- 上部の弧 -->
  <path d="M 65.89,11.33 A 95,95 0 0,1 134.11,11.33" fill="#000000"/>
  
  <line x1="100.00" y1="100.00" x2="190.35" y2="70.64" stroke="#000000" stroke-width="1"/>
  <line x1="167.76" y1="77.98" x2="173.79" y2="40.16" stroke="#000000" stroke-width="1"/>
  <line x1="167.76" y1="77.98" x2="194.87" y2="105.04" stroke="#000000" stroke-width="1"/>
  <polygon points="173.79,40.16 190.35,70.64 194.87,105.04" fill="#000000" stroke="none"/>
  <polygon points="173.79,40.16 167.76,77.98 194.87,105.04" fill="#000000" stroke="none"/>
  
  <!-- 右上の弧 -->
  <path d="M 173.79,40.16 A 95,95 0 0,1 194.87,105.04" fill="#000000"/>
  
  <line x1="100.00" y1="100.00" x2="155.84" y2="176.86" stroke="#000000" stroke-width="1"/>
  <line x1="141.88" y1="157.64" x2="179.71" y2="151.68" stroke="#000000" stroke-width="1"/>
  <line x1="141.88" y1="157.64" x2="124.52" y2="191.78" stroke="#000000" stroke-width="1"/>
  <polygon points="179.71,151.68 155.84,176.86 124.52,191.78" fill="#000000" stroke="none"/>
  <polygon points="179.71,151.68 141.88,157.64 124.52,191.78" fill="#000000" stroke="none"/>
  
  <!-- 右下の弧 -->
  <path d="M 179.71,151.68 A 95,95 0 0,1 124.52,191.78" fill="#000000"/>
  
  <line x1="100.00" y1="100.00" x2="44.16" y2="176.86" stroke="#000000" stroke-width="1"/>
  <line x1="58.12" y1="157.64" x2="75.48" y2="191.78" stroke="#000000" stroke-width="1"/>
  <line x1="58.12" y1="157.64" x2="20.29" y2="151.68" stroke="#000000" stroke-width="1"/>
  <polygon points="75.48,191.78 44.16,176.86 20.29,151.68" fill="#000000" stroke="none"/>
  <polygon points="75.48,191.78 58.12,157.64 20.29,151.68" fill="#000000" stroke="none"/>
  
  <!-- 左下の弧 -->
  <path d="M 75.48,191.78 A 95,95 0 0,1 20.29,151.68" fill="#000000"/>
  
  <line x1="100.00" y1="100.00" x2="9.65" y2="70.64" stroke="#000000" stroke-width="1"/>
  <line x1="32.24" y1="77.98" x2="5.13" y2="105.04" stroke="#000000" stroke-width="1"/>
  <line x1="32.24" y1="77.98" x2="26.21" y2="40.16" stroke="#000000" stroke-width="1"/>
  <polygon points="5.13,105.04 9.65,70.64 26.21,40.16" fill="#000000" stroke="none"/>
  <polygon points="5.13,105.04 32.24,77.98 26.21,40.16" fill="#000000" stroke="none"/>
  
  <!-- 左上の弧 -->
  <path d="M 5.13,105.04 A 95,95 0 0,1 26.21,40.16" fill="#000000"/>
</svg>
